<svg xmlns:xlink="http://www.w3.org/1999/xlink" xmlns="http://www.w3.org/2000/svg" class="css-ze2te4 css-qd6ojx" viewBox="0 0 70 69.38445607588245" width="110"  height="109" ><g transform="translate(-5.915029295147734, -6.066087171279121) scale(0.8167124542898937)" class="css-a4fpw5" fill="#6EB6FF"><g xmlns="http://www.w3.org/2000/svg" fill="#6EB6FF"><g fill="#6EB6FF"><path d="M92.944,64.69c0.121-1.781-1.153-3.234-2.697-3.929c-1.328-0.598-3.559-1.222-4.944-0.496    c-5.488-12.388-20.077-15.107-33.21-12.558C46,48.891,41.952,53.843,39.283,59.843c-2.424-1.541-5.95-0.208-6.401,2.763    c-0.196,1.284,0.154,2.609,1.189,3.456c0.757,0.623,1.814,0.937,2.771,0.775c-1.207,4.466-1.861,8.953-2.182,12.538    c-0.374,4.193,0.431,8.588,4.21,10.875c3.735,2.261,7.023-1.485,7.497-4.785c4.258,1.237,8.724,1.104,13.142,1.131    c5.544,0.034,11.059,0.529,16.575,0.101c-0.172,0.699-0.074,1.534,0.086,2.124c0.222,0.809,0.722,1.47,1.405,1.74    c2.729,2.66,7.091,2.565,9.08-1.331c3.107-6.084,2.03-14.048,0.818-20.844C89.502,69.338,92.787,66.953,92.944,64.69z     M41.603,62.8c-0.128,0.001-0.258,0.017-0.389,0.049c-0.017,0.005-0.03,0.014-0.048,0.019c0.219-0.491,0.437-0.981,0.678-1.456    c0.057,0.332,0.166,0.643,0.31,0.941C41.935,62.455,41.737,62.602,41.603,62.8z M45.437,75.564    c-1.373,0.406-2.166-1.002-2.421-2.103c-0.245-1.052-0.016-2.008,0.713-2.71c0.045,0.007,0.088,0.028,0.135,0.028    c0.771-0.009,1.289-0.617,2.072-0.603c0.752,0.013,1.429,0.672,1.818,1.256C49.022,73.333,47.258,75.027,45.437,75.564z     M77.894,75.656c-1.124-0.006-2.034-0.929-2.279-1.965c-0.043-0.183-0.043-0.346-0.024-0.499c1.603-0.366,3.098-0.893,4.368-1.622    c0.407,0.42,0.698,1.006,0.85,1.759C81.135,74.95,79.162,75.664,77.894,75.656z M59.684,65.126    c-3.472-0.233-17.045-0.246-16.131-6.233c0.018-0.118-0.005-0.228-0.044-0.329c2.251-3.358,5.28-6.052,9.543-7.376    c10.403-3.232,21.662-0.021,27.968,8.754c0.341,0.473,0.651,0.964,0.94,1.467C75.66,65.908,67.045,65.619,59.684,65.126z" fill="#6EB6FF"></path><path d="M64.77,36.982c-1.083-0.64-2.511-0.568-3.586,0.063c-0.025-0.017-0.037-0.048-0.066-0.063    c-1.653-9.329-9.019-14.333-19.393-15.717c-11.702-1.56-22.336,4.403-27.226,14.833c-0.468-0.941-1.669-1.333-2.769-1.316    c-1.699,0.026-3.424,0.84-4.158,2.417c-0.796,1.709-0.086,3.342,1.444,4.3c0.688,0.431,1.882,0.896,2.972,0.986    c-2.505,7.274-4.51,16.655,0.135,22.304c1.441,1.751,6.199,2.678,8.14,1.387c1.683-1.117,1.524-0.98,2.211-2.942    c0.661-1.893,6.545-1.597,8.522-1.949c0.572-0.103,0.577-0.688,0.283-1.039c0.451-0.466,0.614-1.07,0.539-1.642    c0.933-0.722,1.879-1.3,3.287-1.629c1.013-0.237,1.594-1.192,1.65-2.17c0.545-9.232,15.666-9.705,24.149-10.942    c0.915,0.461,2.108,0.568,2.987,0.412c1.427-0.254,2.671-1.231,2.945-2.7C67.168,39.789,66.33,37.902,64.77,36.982z     M22.258,48.466c-0.516,1.083-1.728,1.583-2.718,1.252c-0.746-0.249-1.265-1.119-1.438-1.857    c-0.048-0.216,0.013-0.629,0.188-1.001c0.104-0.226,0.269-0.44,0.451-0.641c0.224,0.16,0.522,0.244,0.896,0.177    c0.922-0.166,2.344,0.105,2.706,0.944c0.013,0.047,0.031,0.093,0.04,0.141c0.004,0.01,0.004,0.024,0.006,0.035    c0.021,0.129,0.033,0.262,0.033,0.396C22.402,48.083,22.354,48.265,22.258,48.466z M17.909,34.823    c0.679-1.083,1.404-2.139,2.218-3.134c9.863-12.053,33.993-9.626,37.955,5.41C43.973,38.725,31.536,39.955,17.909,34.823z" fill="#6EB6FF"></path><path d="M89.328,22.931c-1.141-0.447-3.165-0.212-4.455,0.519c-0.03-0.026-0.055-0.057-0.087-0.08    c-0.276-0.909-0.58-1.819-0.937-2.73C79.197,8.752,69.089,6.411,57.473,7.773c-5.109,0.6-15.818,4.255-14.921,10.872    c0.087,0.648,1.163,0.622,1.276,0c0.988-5.412,8.391-7.325,13.012-8.273c9.555-1.961,18.211,0.739,23.218,9.442    c0.741,1.29,1.309,2.62,1.774,3.977c-7.486,2.648-14.822,1.4-22.672,0.38c-0.913-0.12-0.976,1.108-0.415,1.53    c0.206,0.154,0.445,0.3,0.674,0.446c-1.112,0.432-1.798,1.915-0.706,2.92c2.607,2.397,4.75,4.962,6.953,7.727    c0.918,1.154,1.886,2.246,2.895,3.319c0.338,0.358,0.193,1.985,0.417,2.561c0.713,1.83,2.667,2.05,4.415,2.027    c1.882-0.026,4.516,0.471,6.32,1.674c-0.052,0.097-0.094,0.202-0.106,0.322c-0.563,5.064,4.364,10.352,7.91,4.553    c1.938-3.172,0.638-8.433,0.132-11.822c-0.447-3.006-0.799-5.928-1.267-8.817c2.295,0.385,5.364-1.541,5.678-3.69    C92.332,25.069,90.953,23.568,89.328,22.931z M89.992,25.936c-0.02-0.021-0.029-0.047-0.052-0.067    c-0.6-0.545-1.433-1.098-2.26-1.456C88.671,24.46,89.702,24.983,89.992,25.936z M79.763,38.533    c-1.352,0.804-2.651-0.091-3.163-1.41c-0.445-1.146-0.197-2.305,0.675-3.077c0.094-0.02,0.188-0.047,0.28-0.105    c0.096-0.06,0.19-0.095,0.285-0.137c0.012,0.007,0.023,0.015,0.034,0.022c0.895,0.587,1.509,1.568,1.968,2.506    c0.297,0.608,0.313,1.236,0.413,1.841C80.109,38.302,79.948,38.423,79.763,38.533z" fill="#6EB6FF"></path></g></g></g></svg>